<?xml version="1.0" encoding="UTF-8" standalone="no"?>
<svg
   id="svg29"
   xml:space="preserve"
   enable-background="new 0 0 1024 1024"
   viewBox="0 0 511.99155 122.82084"
   y="0px"
   x="0px"
   version="1.1"
   sodipodi:docname="brandmark-design.svg"
   width="511.99155"
   height="122.82084"
   inkscape:version="1.3.1 (9b9bdc1480, 2023-11-25, custom)"
   xmlns:inkscape="http://www.inkscape.org/namespaces/inkscape"
   xmlns:sodipodi="http://sodipodi.sourceforge.net/DTD/sodipodi-0.dtd"
   xmlns="http://www.w3.org/2000/svg"
   xmlns:svg="http://www.w3.org/2000/svg"
   xmlns:rdf="http://www.w3.org/1999/02/22-rdf-syntax-ns#"
   xmlns:cc="http://creativecommons.org/ns#"
   xmlns:dc="http://purl.org/dc/elements/1.1/"><sodipodi:namedview
     id="namedview1"
     pagecolor="#ffffff"
     bordercolor="#000000"
     borderopacity="0.25"
     inkscape:showpageshadow="2"
     inkscape:pageopacity="0.0"
     inkscape:pagecheckerboard="0"
     inkscape:deskcolor="#d1d1d1"
     inkscape:zoom="0.79199219"
     inkscape:cx="255.68434"
     inkscape:cy="162.24908"
     inkscape:window-width="1850"
     inkscape:window-height="1011"
     inkscape:window-x="70"
     inkscape:window-y="32"
     inkscape:window-maximized="1"
     inkscape:current-layer="svg29" /><metadata
     id="metadata35"><rdf:RDF><cc:Work
         rdf:about=""><dc:format>image/svg+xml</dc:format><dc:type
           rdf:resource="http://purl.org/dc/dcmitype/StillImage" /></cc:Work></rdf:RDF></metadata><defs
     id="defs33" /><g
     id="g27"
     transform="translate(-256.00367,-322.58562)"><g
       transform="matrix(1.3706026,0,0,1.3695148,-189.74895,-141.06487)"
       id="logo-group"><path
         stroke-miterlimit="2"
         d="m 327.92,405.48 h 12.78 c 0.29952,0 0.56576,-0.26624 0.56576,-0.56576 0,-0.3328 -0.26624,-0.56576 -0.56576,-0.56576 h -12.78 c -0.29952,0 -0.56576,0.23296 -0.56576,0.56576 0,0.29952 0.26624,0.56576 0.56576,0.56576 z m -0.56576,21.266 c 0,0.29952 0.26624,0.53248 0.56576,0.53248 h 12.78 c 0.29952,0 0.56576,-0.23296 0.56576,-0.53248 0,-0.3328 -0.26624,-0.56576 -0.56576,-0.56576 h -12.78 c -0.29952,0 -0.56576,0.23296 -0.56576,0.56576 z m 0,-2.8954 c 0,0.3328 0.26624,0.56576 0.56576,0.56576 0.29952,0 0.56576,-0.23296 0.56576,-0.56576 v -7.8208 h 11.981 c 0.29952,0 0.56576,-0.26624 0.56576,-0.56576 0,-0.29952 -0.26624,-0.56576 -0.56576,-0.56576 h -11.981 v -7.1219 c 0,-0.29952 -0.26624,-0.56576 -0.56576,-0.56576 -0.29952,0 -0.56576,0.26624 -0.56576,0.56576 z"
         style="font-variant-ligatures:none;fill:#003049;stroke:#003049;stroke-width:0.832;stroke-miterlimit:2"
         id="path769870" /><path
         stroke-miterlimit="2"
         d="m 370.26,404.34 c -0.29952,0 -0.53248,0.23296 -0.53248,0.56576 v 20.134 l -15.242,-20.467 c -0.13312,-0.19968 -0.39936,-0.29952 -0.59904,-0.19968 -0.23296,0.0666 -0.39936,0.26624 -0.39936,0.53248 v 21.832 c 0,0.29952 0.26624,0.53248 0.56576,0.53248 0.29952,0 0.56576,-0.23296 0.56576,-0.53248 v -20.134 l 15.209,20.467 c 0.0998,0.13312 0.26624,0.19968 0.43264,0.19968 h 0.19968 c 0.23296,-0.0998 0.36608,-0.29952 0.36608,-0.53248 v -21.832 c 0,-0.3328 -0.23296,-0.56576 -0.56576,-0.56576 z"
         style="font-variant-ligatures:none;fill:#0a2c43;stroke:#0a2c43;stroke-width:0.832;stroke-miterlimit:2"
         id="path769872" /><path
         stroke-miterlimit="2"
         d="m 395.26,404.34 c -0.29952,0 -0.56576,0.23296 -0.56576,0.56576 v 15.775 c 0,3.0618 -2.496,5.5578 -5.5578,5.5578 -3.0618,0 -5.5578,-2.496 -5.5578,-5.5578 0,-0.29952 -0.26624,-0.56576 -0.56576,-0.56576 -0.29952,0 -0.56576,0.26624 -0.56576,0.56576 0,3.6941 2.9952,6.6893 6.6893,6.6893 3.6941,0 6.6893,-2.9952 6.6893,-6.6893 v -15.775 c 0,-0.3328 -0.26624,-0.56576 -0.56576,-0.56576 z"
         style="font-variant-ligatures:none;fill:#14283d;stroke:#14283d;stroke-width:0.832;stroke-miterlimit:2"
         id="path769874" /><path
         stroke-miterlimit="2"
         d="m 420.14,404.34 c -6.3232,0 -11.482,5.1584 -11.482,11.482 0,6.3232 5.1584,11.448 11.482,11.448 6.3232,0 11.482,-5.1251 11.482,-11.448 0,-6.3565 -5.1584,-11.482 -11.482,-11.482 z m -10.35,11.482 c 0,-5.7242 4.6259,-10.35 10.35,-10.35 5.6909,0 10.35,4.6259 10.35,10.35 0,5.6909 -4.6592,10.35 -10.35,10.35 -5.7242,0 -10.35,-4.6592 -10.35,-10.35 z"
         style="font-variant-ligatures:none;fill:#1e2437;stroke:#1e2437;stroke-width:0.832;stroke-miterlimit:2"
         id="path769876" /><path
         stroke-miterlimit="2"
         d="m 459.55,404.44 c -0.26624,-0.1664 -0.59904,-0.13312 -0.79872,0.13312 l -8.1869,11.182 -8.2202,-11.182 c -0.1664,-0.26624 -0.53248,-0.29952 -0.76544,-0.13312 -0.26624,0.19968 -0.29952,0.53248 -0.13312,0.79872 l 8.553,11.648 v 9.8509 c 0,0.29952 0.26624,0.53248 0.56576,0.53248 0.29952,0 0.56576,-0.23296 0.56576,-0.53248 v -9.8509 l 8.553,-11.648 c 0.1664,-0.26624 0.0998,-0.59904 -0.13312,-0.79872 z"
         style="font-variant-ligatures:none;fill:#282031;stroke:#282031;stroke-width:0.832;stroke-miterlimit:2"
         id="path769878" /><path
         stroke-miterlimit="2"
         d="m 502.47,404.44 c -0.26624,-0.1664 -0.59904,-0.13312 -0.79872,0.13312 l -8.1869,11.182 -8.2202,-11.182 c -0.1664,-0.26624 -0.53248,-0.29952 -0.76544,-0.13312 -0.26624,0.19968 -0.29952,0.53248 -0.13312,0.79872 l 8.553,11.648 v 9.8509 c 0,0.29952 0.26624,0.53248 0.56576,0.53248 0.29952,0 0.56576,-0.23296 0.56576,-0.53248 v -9.8509 l 8.553,-11.648 c 0.1664,-0.26624 0.0998,-0.59904 -0.13312,-0.79872 z"
         style="font-variant-ligatures:none;fill:#321c2b;stroke:#321c2b;stroke-width:0.832;stroke-miterlimit:2"
         id="path769880" /><path
         stroke-miterlimit="2"
         d="m 523.89,404.34 c -6.3232,0 -11.482,5.1584 -11.482,11.482 0,6.3232 5.1584,11.448 11.482,11.448 6.3232,0 11.482,-5.1251 11.482,-11.448 0,-6.3565 -5.1584,-11.482 -11.482,-11.482 z m -10.35,11.482 c 0,-5.7242 4.6259,-10.35 10.35,-10.35 5.6909,0 10.35,4.6259 10.35,10.35 0,5.6909 -4.6592,10.35 -10.35,10.35 -5.7242,0 -10.35,-4.6592 -10.35,-10.35 z"
         style="font-variant-ligatures:none;fill:#3c1825;stroke:#3c1825;stroke-width:0.832;stroke-miterlimit:2"
         id="path769882" /><path
         stroke-miterlimit="2"
         d="m 564.45,404.34 c -0.3328,0 -0.56576,0.23296 -0.56576,0.56576 v 13.911 c 0,4.0602 -3.2947,7.3549 -7.3549,7.3549 -4.0269,0 -7.3216,-3.2947 -7.3216,-7.3549 v -13.911 c 0,-0.3328 -0.26624,-0.56576 -0.56576,-0.56576 -0.29952,0 -0.56576,0.23296 -0.56576,0.56576 v 13.911 c 0,4.6592 3.7939,8.4531 8.4531,8.4531 4.6925,0 8.4864,-3.7939 8.4864,-8.4531 v -13.911 c 0,-0.3328 -0.26624,-0.56576 -0.56576,-0.56576 z"
         style="font-variant-ligatures:none;fill:#46141e;stroke:#46141e;stroke-width:0.832;stroke-miterlimit:2"
         id="path769884" /><path
         stroke-miterlimit="2"
         d="m 579.72,404.34 c -0.29952,0 -0.56576,0.23296 -0.56576,0.56576 v 21.832 c 0,0.29952 0.26624,0.53248 0.56576,0.53248 0.29952,0 0.56576,-0.23296 0.56576,-0.53248 v -21.832 c 0,-0.3328 -0.26624,-0.56576 -0.56576,-0.56576 z m 2.2963,12.413 c 0,0.29952 0.26624,0.53248 0.56576,0.53248 h 2.8954 l 6.889,9.751 c 0.0998,0.1664 0.29952,0.23296 0.46592,0.23296 0.0998,0 0.23296,-0.0333 0.3328,-0.0998 0.23296,-0.1664 0.29952,-0.53248 0.13312,-0.76544 l -6.423,-9.1187 h 0.3328 c 3.561,0 6.4896,-2.8954 6.4896,-6.4563 0,-3.5942 -2.9286,-6.4896 -6.4896,-6.4896 h -4.6259 c -0.29952,0 -0.56576,0.23296 -0.56576,0.56576 0,0.29952 0.26624,0.56576 0.56576,0.56576 h 4.6259 c 2.9619,-0.0333 5.3581,2.3962 5.3581,5.3581 0,2.9286 -2.3962,5.3581 -5.3581,5.3581 h -4.6259 c -0.29952,0 -0.56576,0.23296 -0.56576,0.56576 z"
         style="font-variant-ligatures:none;fill:#501018;stroke:#501018;stroke-width:0.832;stroke-miterlimit:2"
         id="path769886" /><path
         stroke-miterlimit="2"
         d="m 613.19,414.73 c -3.328,-1.1315 -6.1901,-2.1299 -6.1901,-4.8922 0,-3.9603 4.1933,-4.3597 5.9904,-4.3597 3.9603,0 6.1901,2.3629 6.2234,2.3962 0.19968,0.23296 0.53248,0.23296 0.76544,0.0333 0.23296,-0.19968 0.26624,-0.56576 0.0666,-0.79872 -0.0998,-0.0998 -2.5626,-2.7622 -7.0554,-2.7622 -4.4595,0 -7.0886,2.0301 -7.0886,5.4912 0,3.561 3.4944,4.7923 6.9222,5.9571 3.5277,1.2314 6.889,2.3962 6.889,5.9571 0,2.8621 -3.328,4.4262 -6.4896,4.4262 -4.16,0 -7.0886,-2.8288 -7.1219,-2.8621 -0.23296,-0.19968 -0.59904,-0.19968 -0.79872,0 -0.23296,0.23296 -0.23296,0.59904 0,0.79872 0.13312,0.13312 3.2614,3.1616 7.9206,3.1616 4.992,0 7.6211,-2.7955 7.6211,-5.5245 0,-4.3597 -4.0602,-5.7574 -7.6544,-7.0221 z"
         style="font-variant-ligatures:none;fill:#5a0c12;stroke:#5a0c12;stroke-width:0.832;stroke-miterlimit:2"
         id="path769888" /><path
         stroke-miterlimit="2"
         d="m 634.13,405.48 h 12.78 c 0.29952,0 0.56576,-0.26624 0.56576,-0.56576 0,-0.3328 -0.26624,-0.56576 -0.56576,-0.56576 h -12.78 c -0.29952,0 -0.56576,0.23296 -0.56576,0.56576 0,0.29952 0.26624,0.56576 0.56576,0.56576 z m -0.56576,21.266 c 0,0.29952 0.26624,0.53248 0.56576,0.53248 h 12.78 c 0.29952,0 0.56576,-0.23296 0.56576,-0.53248 0,-0.3328 -0.26624,-0.56576 -0.56576,-0.56576 h -12.78 c -0.29952,0 -0.56576,0.23296 -0.56576,0.56576 z m 0,-2.8954 c 0,0.3328 0.26624,0.56576 0.56576,0.56576 0.29952,0 0.56576,-0.23296 0.56576,-0.56576 v -7.8208 h 11.981 c 0.29952,0 0.56576,-0.26624 0.56576,-0.56576 0,-0.29952 -0.26624,-0.56576 -0.56576,-0.56576 h -11.981 v -7.1219 c 0,-0.29952 -0.26624,-0.56576 -0.56576,-0.56576 -0.29952,0 -0.56576,0.26624 -0.56576,0.56576 z"
         style="font-variant-ligatures:none;fill:#64080c;stroke:#64080c;stroke-width:0.832;stroke-miterlimit:2"
         id="path769890" /><path
         stroke-miterlimit="2"
         d="m 660.27,404.34 c -0.29952,0 -0.56576,0.23296 -0.56576,0.56576 v 21.832 c 0,0.29952 0.26624,0.53248 0.56576,0.53248 0.29952,0 0.56576,-0.23296 0.56576,-0.53248 v -21.832 c 0,-0.3328 -0.26624,-0.56576 -0.56576,-0.56576 z m 2.2963,22.397 c 0,0.29952 0.26624,0.53248 0.56576,0.53248 h 8.4531 c 0.29952,0 0.56576,-0.23296 0.56576,-0.53248 0,-0.3328 -0.26624,-0.56576 -0.56576,-0.56576 h -8.4531 c -0.29952,0 -0.56576,0.23296 -0.56576,0.56576 z"
         style="font-variant-ligatures:none;fill:#6e0406;stroke:#6e0406;stroke-width:0.832;stroke-miterlimit:2"
         id="path769892" /><path
         stroke-miterlimit="2"
         d="M 696.08,404.34 H 683.3 c -0.29952,0 -0.56576,0.23296 -0.56576,0.56576 v 21.832 c 0,0.29952 0.26624,0.53248 0.56576,0.53248 0.29952,0 0.56576,-0.23296 0.56576,-0.53248 v -21.266 h 12.214 c 0.29952,0 0.56576,-0.26624 0.56576,-0.56576 0,-0.3328 -0.26624,-0.56576 -0.56576,-0.56576 z m -10.483,11.116 c 0,0.29952 0.26624,0.56576 0.56576,0.56576 h 9.5514 c 0.29952,0 0.56576,-0.26624 0.56576,-0.56576 0,-0.29952 -0.26624,-0.56576 -0.56576,-0.56576 h -9.5514 c -0.29952,0 -0.56576,0.26624 -0.56576,0.56576 z"
         style="font-variant-ligatures:none;fill:#780000;stroke:#780000;stroke-width:0.832;stroke-miterlimit:2"
         id="path769894" /><path
         stroke-miterlimit="2"
         class="c1"
         d="m 343.67,390.8 h -11.573 v -7.9034 h 11.573 c 2.8931,0 9.8086,-0.21174 9.8086,-11.079 v -30.202 h 7.9036 v 28.509 c 0,19.688 -13.831,20.676 -17.712,20.676 z"
         style="font-variant-ligatures:normal;fill:#090909;stroke-width:0;stroke-miterlimit:2"
         id="path25" /><path
         stroke-miterlimit="2"
         class="c1"
         d="m 453.32,341.61 h 7.9032 v 8.2562 c 0,10.797 6.8447,11.291 9.8086,11.291 2.6108,0 8.3266,-0.4234 9.5971,-8.0445 h 7.762 c -1.5523,11.149 -8.5382,14.395 -13.408,15.313 v 22.369 h -7.9032 v -22.369 c -5.5044,-1.0585 -13.76,-5.0808 -13.76,-20.323 z"
         style="font-variant-ligatures:normal;fill:#090909;stroke-width:0;stroke-miterlimit:2"
         id="path28" /><path
         stroke-miterlimit="2"
         class="c3"
         d="m 480.85,345.42 c 0,-2.1875 1.7643,-3.9517 3.9516,-3.9517 2.1878,0 3.952,1.7642 3.952,3.9517 0,2.1876 -1.7643,3.9517 -3.952,3.9517 -2.1873,-10e-6 -3.9516,-1.7642 -3.9516,-3.9517 z"
         style="font-variant-ligatures:normal;fill:#003049;stroke-width:0;stroke-miterlimit:2"
         id="path30" /><path
         stroke-miterlimit="2"
         class="c1"
         d="m 505.93,370.12 v -28.509 h 7.9034 v 30.273 c 0,10.797 6.8449,11.008 9.8086,11.008 h 11.573 v 7.9034 h -11.573 c -3.9516,-10e-6 -17.712,-0.98792 -17.712,-20.676 z"
         style="font-variant-ligatures:normal;fill:#090909;stroke-width:0;stroke-miterlimit:2"
         id="path33" /><path
         stroke-miterlimit="2"
         class="c1"
         d="m 560.07,341.61 v 49.185 h -7.9034 V 341.61 Z"
         style="font-variant-ligatures:normal;fill:#090909;stroke-width:0;stroke-miterlimit:2"
         id="path36" /><path
         id="polygon39"
         d="M 82.324,80.124 V 72.132 H 104.07 V 122.32 H 96.078 V 80.124 Z"
         style="font-variant-ligatures:normal;fill:#090909;stroke-width:0;stroke-miterlimit:2"
         transform="matrix(0.98,0,0,0.98,496.4,270.93)" /><path
         id="circle41"
         d="m 611.86157,345.57001 a 3.9516001,3.9516001 0 0 1 -3.9516,3.9516 3.9516001,3.9516001 0 0 1 -3.9516,-3.9516 3.9516001,3.9516001 0 0 1 3.9516,-3.9516 3.9516001,3.9516001 0 0 1 3.9516,3.9516 z"
         style="font-variant-ligatures:normal;fill:#003049;stroke-width:0;stroke-miterlimit:2" /><path
         stroke-miterlimit="2"
         class="c1"
         d="m 636.52,341.61 v 49.185 h -7.9034 V 341.61 Z"
         style="font-variant-ligatures:normal;fill:#090909;stroke-width:0;stroke-miterlimit:2"
         id="path44" /><path
         stroke-miterlimit="2"
         class="c1"
         d="m 691.84,379.37 h -7.8328 c -0.28233,-9.597 -6.2805,-10.514 -9.3148,-10.585 h -0.98813 c -3.1046,0.0706 -9.3148,1.0585 -9.3148,11.291 v 10.726 h -7.9032 v -8.9619 c 0,-8.8913 2.8228,-13.972 6.2805,-16.865 -3.4578,-2.8932 -6.2805,-7.974 -6.2805,-16.865 v -6.4921 h 7.9032 v 8.2562 c 0,10.232 6.2102,11.22 9.3148,11.291 h 0.98813 c 3.1051,-0.0706 9.3851,-1.0585 9.3851,-11.291 v -8.3268 l 7.8328,0.0706 v 6.4921 c 0,8.8913 -2.8228,13.972 -6.2805,16.865 3.1051,2.611 5.7164,6.986 6.2102,14.395 z"
         style="font-variant-ligatures:normal;fill:#090909;stroke-width:0;stroke-miterlimit:2"
         id="path47" /><path
         stroke-miterlimit="2"
         class="c3"
         d="m 687.89,382.9 c 2.1873,0 3.9516,1.7641 3.9516,3.9517 0,2.1876 -1.7643,3.9517 -3.9516,3.9517 -2.1878,0 -3.952,-1.7641 -3.952,-3.9517 0,-2.1876 1.7643,-3.9517 3.952,-3.9517 z"
         style="font-variant-ligatures:normal;fill:#003049;stroke-width:0;stroke-miterlimit:2"
         id="path49" /><path
         style="fill:#780000;stroke-width:0.31262"
         d="m 408.12,339 c -0.49712,-0.003 -0.96243,-0.003 -1.0342,1.7e-4 -0.0716,0.003 -0.31809,0.0144 -0.54752,0.0249 -0.22944,0.0104 -0.60889,0.0341 -0.8432,0.0525 -0.2343,0.0186 -0.54317,0.0457 -0.68657,0.0607 -0.14323,0.0148 -0.41698,0.0464 -0.60817,0.0702 -0.1912,0.0238 -0.4806,0.0628 -0.64313,0.0867 -0.16251,0.024 -0.43629,0.0671 -0.60835,0.0959 -0.17208,0.0289 -0.52405,0.0946 -0.78218,0.14601 -0.25812,0.0514 -0.62574,0.12967 -0.81694,0.17364 -0.1912,0.0442 -0.50007,0.11958 -0.68657,0.16756 -0.18634,0.0481 -0.49138,0.13071 -0.67789,0.18355 -0.18633,0.0527 -0.52404,0.15383 -0.75019,0.2244 -0.22614,0.0706 -0.57029,0.1839 -0.7648,0.25186 -0.1945,0.068 -0.54127,0.19432 -0.7707,0.28089 -0.22944,0.0866 -0.60889,0.2376 -0.84301,0.33547 -0.23413,0.098 -0.59792,0.25638 -0.80825,0.35198 -0.21032,0.0956 -0.53502,0.24873 -0.72134,0.34016 -0.18633,0.0916 -0.48356,0.24178 -0.6605,0.33406 -0.17677,0.0923 -0.47018,0.2503 -0.65181,0.3513 -0.18164,0.10116 -0.49401,0.28123 -0.6939,0.40031 -0.20006,0.11906 -0.48165,0.29096 -0.62574,0.38205 -0.14426,0.0913 -0.42638,0.27532 -0.62711,0.40934 -0.20076,0.13384 -0.50979,0.3466 -0.68677,0.47278 -0.17694,0.12601 -0.4547,0.32937 -0.61704,0.45173 -0.16235,0.12237 -0.4634,0.35736 -0.66901,0.52199 -0.20545,0.16477 -0.51451,0.42028 -0.68658,0.56787 -0.17208,0.14757 -0.40672,0.35267 -0.52145,0.45592 -0.11472,0.10308 -0.39562,0.36449 -0.62417,0.58073 -0.22857,0.2164 -0.58839,0.57359 -0.79956,0.79383 -0.21119,0.2204 -0.49675,0.52546 -0.63462,0.67789 -0.13766,0.15261 -0.37146,0.41819 -0.51936,0.59029 -0.14774,0.17208 -0.40343,0.48096 -0.56803,0.68657 -0.1646,0.20545 -0.39924,0.50667 -0.52163,0.66901 -0.1222,0.16234 -0.32538,0.44011 -0.4514,0.61705 -0.12619,0.17695 -0.33894,0.486 -0.47277,0.68676 -0.13402,0.20076 -0.31809,0.48288 -0.40935,0.62712 -0.0911,0.14409 -0.26298,0.42566 -0.38205,0.62574 -0.11906,0.19989 -0.29914,0.51223 -0.40012,0.69389 -0.10081,0.18164 -0.27324,0.50232 -0.38309,0.71265 -0.10985,0.21032 -0.28279,0.55603 -0.3843,0.76811 -0.10151,0.21223 -0.25203,0.53658 -0.33441,0.72099 -0.0824,0.18425 -0.20058,0.45661 -0.26264,0.60505 -0.062,0.14826 -0.17121,0.41838 -0.24265,0.60001 -0.0714,0.18164 -0.20284,0.53361 -0.29218,0.78217 -0.0893,0.24856 -0.22214,0.63897 -0.29532,0.86752 -0.0732,0.22857 -0.18303,0.58961 -0.24439,0.80216 -0.0612,0.21257 -0.15817,0.56906 -0.21535,0.79243 -0.0572,0.22317 -0.1354,0.54264 -0.17364,0.71005 -0.0382,0.16721 -0.10846,0.49572 -0.15575,0.73003 -0.0474,0.23413 -0.11784,0.61358 -0.15643,0.84301 -0.0386,0.22944 -0.0899,0.55396 -0.11403,0.72134 -0.0242,0.16721 -0.0594,0.43317 -0.0784,0.59098 -0.019,0.15765 -0.0502,0.44323 -0.0694,0.63443 -0.0193,0.1912 -0.0466,0.50407 -0.0608,0.69526 -0.0143,0.1912 -0.0358,0.52355 -0.0478,0.73873 -0.0129,0.22943 -0.0221,0.80424 -0.0221,1.3905 0,0.58629 0.009,1.1611 0.0221,1.3905 0.012,0.21501 0.0335,0.54752 0.0478,0.73872 0.0143,0.1912 0.0415,0.50407 0.0608,0.69527 0.0191,0.1912 0.0504,0.47662 0.0694,0.63443 0.0189,0.15765 0.0544,0.4236 0.0786,0.59098 0.0242,0.16721 0.0713,0.46843 0.10464,0.66919 0.0334,0.20076 0.1029,0.57619 0.15435,0.83432 0.0513,0.25812 0.13732,0.65875 0.19102,0.89047 0.0535,0.2317 0.1514,0.6228 0.21728,0.86908 0.0659,0.2463 0.17155,0.61999 0.235,0.83032 0.0634,0.21032 0.17659,0.56612 0.25151,0.79087 0.0747,0.22457 0.19485,0.56872 0.26681,0.76479 0.0718,0.19607 0.17347,0.46584 0.22561,0.59967 0.0523,0.13384 0.15383,0.38449 0.22579,0.5569 0.0718,0.17243 0.19693,0.46183 0.27811,0.64312 0.081,0.18129 0.22961,0.50163 0.33006,0.71196 0.10064,0.21032 0.27863,0.56613 0.39562,0.79087 0.11715,0.22457 0.30227,0.56769 0.41144,0.76235 0.10916,0.19468 0.27359,0.48009 0.36536,0.63443 0.0918,0.15435 0.25256,0.41698 0.35736,0.58367 0.10463,0.16669 0.30035,0.46793 0.43472,0.66919 0.13437,0.20128 0.34745,0.51085 0.47366,0.6878 0.12601,0.17694 0.32922,0.4547 0.45139,0.61705 0.12236,0.16234 0.3572,0.46339 0.52198,0.669 0.16478,0.20545 0.42047,0.51451 0.56803,0.68658 0.14774,0.17208 0.35285,0.40672 0.45608,0.52145 0.10325,0.11472 0.36067,0.39162 0.57222,0.6153 0.21136,0.22353 0.55656,0.57169 0.76704,0.77348 0.2105,0.20163 0.47644,0.45296 0.59098,0.55831 0.11455,0.10533 0.32972,0.29757 0.47781,0.42707 0.14827,0.12967 0.40637,0.34901 0.5736,0.48756 0.16738,0.13836 0.41369,0.33773 0.54752,0.44305 0.13384,0.10516 0.37023,0.28662 0.52545,0.40343 0.15504,0.11664 0.40934,0.30279 0.5649,0.41351 0.15557,0.11089 0.44324,0.30887 0.63912,0.4401 0.19607,0.13123 0.47365,0.31322 0.61705,0.40413 0.1434,0.0911 0.41716,0.2595 0.60836,0.37423 0.1912,0.11472 0.47312,0.27933 0.62662,0.36571 0.15348,0.0862 0.39212,0.21744 0.53014,0.29149 0.13818,0.0739 0.46633,0.24195 0.72915,0.37351 0.26299,0.13141 0.62662,0.30731 0.80825,0.39075 0.18164,0.0834 0.46496,0.20927 0.62956,0.27967 0.16443,0.0706 0.45783,0.19189 0.65162,0.26959 0.19381,0.0777 0.52076,0.20371 0.72622,0.28002 0.20562,0.0761 0.56943,0.20371 0.80843,0.28349 0.239,0.0796 0.61843,0.19954 0.84301,0.26646 0.22475,0.0669 0.56978,0.16513 0.7667,0.21849 0.19711,0.0532 0.4905,0.12845 0.65182,0.16739 0.16147,0.0389 0.45001,0.10516 0.64121,0.14704 0.1912,0.0419 0.53152,0.11125 0.7561,0.15418 0.22475,0.0428 0.58454,0.10551 0.79956,0.1394 0.21519,0.0339 0.53586,0.081 0.71265,0.10464 0.17695,0.0236 0.46236,0.0587 0.63443,0.078 0.17208,0.0193 0.49675,0.0506 0.72134,0.0697 0.22475,0.0193 0.54543,0.0431 0.71265,0.0532 0.16738,0.0101 0.50372,0.0259 0.74741,0.0349 0.24387,0.009 0.68189,0.0169 0.97337,0.0169 0.29167,0 0.72969,-0.008 0.97338,-0.0169 0.24386,-0.009 0.58019,-0.0249 0.74741,-0.0349 0.16739,-0.0101 0.44898,-0.0301 0.62574,-0.0443 0.17695,-0.0144 0.50544,-0.0459 0.73003,-0.07 0.22475,-0.024 0.58054,-0.0673 0.79068,-0.0961 0.21032,-0.0287 0.57012,-0.0834 0.79956,-0.12133 0.22961,-0.0379 0.61686,-0.10846 0.86058,-0.15661 0.24386,-0.0481 0.61148,-0.12636 0.81693,-0.17364 0.20546,-0.0473 0.54196,-0.12949 0.74742,-0.1825 0.20545,-0.0532 0.54577,-0.14619 0.7561,-0.20685 0.21032,-0.0605 0.53502,-0.15852 0.72134,-0.21761 0.1865,-0.0591 0.50719,-0.16583 0.71265,-0.23726 0.20545,-0.0714 0.58888,-0.21241 0.8517,-0.31341 0.26298,-0.10081 0.66572,-0.26368 0.89516,-0.36154 0.22943,-0.098 0.56577,-0.24647 0.74741,-0.32972 0.18164,-0.0833 0.55308,-0.26281 0.82563,-0.3989 0.27254,-0.13593 0.63618,-0.324 0.80824,-0.41785 0.17208,-0.0939 0.44583,-0.24665 0.60836,-0.33982 0.16252,-0.0932 0.40535,-0.23569 0.53971,-0.31668 0.13436,-0.081 0.35339,-0.21606 0.48669,-0.30018 0.13331,-0.0841 0.42638,-0.2762 0.65093,-0.42673 0.22475,-0.15053 0.5258,-0.35736 0.6692,-0.45993 0.1434,-0.10237 0.39768,-0.28905 0.5649,-0.41456 0.16739,-0.12567 0.47625,-0.36624 0.68658,-0.53483 0.21032,-0.16861 0.50372,-0.41004 0.65181,-0.5364 0.14827,-0.12654 0.41282,-0.35945 0.5882,-0.51729 0.17538,-0.158 0.49991,-0.46096 0.72134,-0.67335 0.22144,-0.21223 0.57916,-0.57291 0.79505,-0.80147 0.21588,-0.22839 0.46637,-0.49762 0.5564,-0.59791 0.0902,-0.10047 0.21919,-0.24508 0.28663,-0.32156 0.0674,-0.0765 0.2084,-0.24074 0.31305,-0.36502 0.10482,-0.12428 0.2729,-0.32766 0.3739,-0.45192 0.10081,-0.12428 0.28853,-0.36292 0.41697,-0.53014 0.12863,-0.16739 0.30853,-0.40588 0.40012,-0.53014 0.0914,-0.12428 0.24074,-0.33201 0.33163,-0.46149 0.0911,-0.1295 0.26698,-0.38762 0.39109,-0.5736 0.12393,-0.18598 0.29201,-0.44376 0.37336,-0.57272 0.0812,-0.12914 0.21432,-0.34416 0.29549,-0.47799 0.0813,-0.13384 0.22631,-0.38031 0.32209,-0.54753 0.0959,-0.16738 0.24873,-0.44114 0.33982,-0.60836 0.0909,-0.16738 0.27532,-0.52388 0.40969,-0.79224 0.13418,-0.26854 0.29653,-0.60104 0.36051,-0.73872 0.0638,-0.13784 0.17295,-0.3798 0.24248,-0.53745 0.0694,-0.15783 0.18911,-0.43942 0.26611,-0.62574 0.0768,-0.18634 0.19606,-0.48757 0.26472,-0.6692 0.0688,-0.18164 0.1872,-0.50632 0.26299,-0.72134 0.0758,-0.21518 0.19936,-0.58663 0.27445,-0.82563 0.0749,-0.239 0.17955,-0.58716 0.23239,-0.77348 0.0529,-0.18651 0.13523,-0.49157 0.18338,-0.67789 0.048,-0.1865 0.12272,-0.49259 0.16582,-0.68032 0.0431,-0.1879 0.10968,-0.49435 0.14792,-0.68101 0.0382,-0.18686 0.10116,-0.51814 0.1401,-0.73629 0.0388,-0.21814 0.1015,-0.61182 0.13923,-0.87464 0.0375,-0.26299 0.0841,-0.61096 0.10307,-0.77349 0.0191,-0.16252 0.0506,-0.46755 0.0699,-0.67788 0.0195,-0.21032 0.0469,-0.56231 0.061,-0.78218 0.0143,-0.21988 0.0339,-0.61095 0.0435,-0.86908 0.01,-0.25812 0.0176,-0.70396 0.0176,-0.99076 -1.7e-4,-0.28679 -0.008,-0.72099 -0.017,-0.96468 -0.009,-0.24386 -0.0249,-0.58019 -0.0349,-0.74741 -0.0101,-0.16739 -0.0339,-0.48806 -0.0528,-0.71265 -0.0191,-0.22474 -0.0502,-0.54927 -0.0693,-0.72134 -0.0191,-0.17208 -0.0622,-0.51241 -0.096,-0.7561 -0.0337,-0.24387 -0.0887,-0.60748 -0.12219,-0.80825 -0.0335,-0.20076 -0.10308,-0.57619 -0.15453,-0.83432 -0.0515,-0.25812 -0.12966,-0.62574 -0.17364,-0.81694 -0.0442,-0.1912 -0.11959,-0.50025 -0.16756,-0.68657 -0.0481,-0.18651 -0.13071,-0.49157 -0.18355,-0.67789 -0.0527,-0.18651 -0.15383,-0.52404 -0.2244,-0.75019 -0.0706,-0.22614 -0.1839,-0.57028 -0.25186,-0.7648 -0.068,-0.1945 -0.19432,-0.54127 -0.28106,-0.7707 -0.0866,-0.22944 -0.22579,-0.58141 -0.30922,-0.78217 -0.0834,-0.20076 -0.21814,-0.51364 -0.29931,-0.69527 -0.0812,-0.18164 -0.22666,-0.4945 -0.32294,-0.69527 -0.0965,-0.20076 -0.27289,-0.55377 -0.39196,-0.78442 -0.11924,-0.23066 -0.30696,-0.5802 -0.41716,-0.77661 -0.11037,-0.19659 -0.26472,-0.46531 -0.3431,-0.59742 -0.0784,-0.1321 -0.23257,-0.38499 -0.3426,-0.56178 -0.11003,-0.17695 -0.31737,-0.49763 -0.46096,-0.71265 -0.1434,-0.21518 -0.34676,-0.51241 -0.45192,-0.6605 -0.10516,-0.14827 -0.30835,-0.42585 -0.45158,-0.61705 -0.14323,-0.1912 -0.39509,-0.51589 -0.55987,-0.72134 -0.16478,-0.20563 -0.42048,-0.51451 -0.56803,-0.68658 -0.14775,-0.17208 -0.35286,-0.40672 -0.45612,-0.52145 -0.10307,-0.11472 -0.36448,-0.39543 -0.58072,-0.62383 -0.2164,-0.22839 -0.56544,-0.58038 -0.77574,-0.78218 -0.21031,-0.2018 -0.50753,-0.48112 -0.6605,-0.62051 -0.15296,-0.13958 -0.42673,-0.38118 -0.60836,-0.53693 -0.18164,-0.15574 -0.50232,-0.42097 -0.71265,-0.58941 -0.21031,-0.16843 -0.5192,-0.40882 -0.68657,-0.53449 -0.16721,-0.12549 -0.42151,-0.31218 -0.56491,-0.41457 -0.1434,-0.10255 -0.44445,-0.30956 -0.66919,-0.46008 -0.22457,-0.15052 -0.54527,-0.35964 -0.71265,-0.46461 -0.16721,-0.10499 -0.43038,-0.26612 -0.58472,-0.35789 -0.15435,-0.0918 -0.44186,-0.25743 -0.63897,-0.36814 -0.19728,-0.11055 -0.50113,-0.27602 -0.67544,-0.36746 -0.17434,-0.0914 -0.4695,-0.24073 -0.65598,-0.33181 -0.18633,-0.0913 -0.39752,-0.19311 -0.4693,-0.22666 -0.0716,-0.0335 -0.22422,-0.10359 -0.33894,-0.15591 -0.11472,-0.0523 -0.36502,-0.16182 -0.55622,-0.24334 -0.19119,-0.0815 -0.51207,-0.2131 -0.71299,-0.29236 -0.20093,-0.0793 -0.54908,-0.2105 -0.77348,-0.29167 -0.2244,-0.081 -0.56666,-0.19919 -0.76045,-0.26246 -0.19381,-0.0631 -0.51067,-0.16234 -0.70396,-0.22023 -0.19346,-0.0579 -0.55099,-0.15869 -0.79487,-0.22387 -0.24369,-0.0652 -0.61148,-0.158 -0.81694,-0.20632 -0.20545,-0.0482 -0.50666,-0.11524 -0.66919,-0.14879 -0.16252,-0.0337 -0.39909,-0.081 -0.52561,-0.10551 -0.12654,-0.0243 -0.39246,-0.0714 -0.59097,-0.10463 -0.19851,-0.0332 -0.52649,-0.084 -0.729,-0.11281 -0.2025,-0.0288 -0.57794,-0.0758 -0.83432,-0.10411 -0.25638,-0.0285 -0.67336,-0.0676 -0.9268,-0.0871 -0.25325,-0.0193 -0.60923,-0.0433 -0.79086,-0.0535 -0.18164,-0.0101 -0.73697,-0.0209 -1.2341,-0.024 z m -0.2781,2.4956 c 0.32503,-0.001 0.7827,0.005 1.0168,0.0148 0.23431,0.01 0.60577,0.0294 0.82563,0.044 0.21988,0.0148 0.59151,0.0461 0.82563,0.0695 0.23431,0.0236 0.54718,0.0588 0.69527,0.078 0.14827,0.0193 0.44548,0.0622 0.6605,0.0954 0.21519,0.0332 0.55934,0.0919 0.7648,0.13071 0.20545,0.0388 0.52232,0.1022 0.70395,0.14096 0.18164,0.0389 0.5298,0.12011 0.77349,0.1806 0.24386,0.0603 0.64678,0.16843 0.89569,0.23987 0.24873,0.0716 0.64762,0.19432 0.88646,0.27289 0.23865,0.0784 0.61011,0.20719 0.8251,0.28593 0.21519,0.0789 0.5755,0.21796 0.80093,0.30904 0.22527,0.0913 0.54596,0.22614 0.71265,0.30001 0.16652,0.0739 0.45139,0.20424 0.63306,0.28958 0.18164,0.0854 0.50632,0.24578 0.72134,0.35651 0.21518,0.11072 0.5397,0.2835 0.72134,0.38396 0.18163,0.10064 0.52198,0.29758 0.7561,0.43786 0.2343,0.14027 0.5941,0.36414 0.79956,0.49747 0.20545,0.13349 0.53414,0.35511 0.73003,0.4926 0.19606,0.13749 0.49712,0.35563 0.66919,0.48478 0.17208,0.12897 0.46149,0.35319 0.64312,0.49797 0.18164,0.14479 0.43195,0.34954 0.55622,0.45489 0.12427,0.10551 0.34728,0.29931 0.49537,0.43107 0.14827,0.13158 0.45402,0.41419 0.67979,0.62818 0.22579,0.2138 0.59064,0.57863 0.81085,0.81069 0.22005,0.23204 0.50544,0.54039 0.63408,0.68536 0.12863,0.14496 0.31584,0.36013 0.41579,0.47799 0.10012,0.11802 0.27967,0.33563 0.39925,0.48391 0.11958,0.14809 0.29531,0.37111 0.39055,0.49537 0.0951,0.12428 0.26716,0.35495 0.3824,0.51276 0.11507,0.15765 0.30366,0.4236 0.41891,0.59098 0.11507,0.16721 0.29757,0.44098 0.40516,0.60836 0.10759,0.16721 0.29931,0.47624 0.42585,0.68657 0.12653,0.21032 0.30035,0.50754 0.38639,0.66051 0.086,0.15296 0.25552,0.46686 0.37668,0.69752 0.12115,0.23065 0.30487,0.59829 0.40847,0.81693 0.10342,0.21867 0.25846,0.55778 0.34451,0.75386 0.086,0.19589 0.21935,0.51276 0.29618,0.70395 0.0768,0.1912 0.19207,0.48844 0.25603,0.66051 0.0641,0.17208 0.16304,0.44967 0.22006,0.61705 0.0568,0.16721 0.15695,0.47624 0.22248,0.68657 0.0655,0.21032 0.16651,0.55447 0.22457,0.7648 0.0581,0.21031 0.14827,0.5583 0.20041,0.77348 0.0523,0.21501 0.12254,0.52023 0.15609,0.67789 0.0337,0.15765 0.0921,0.45104 0.13001,0.65181 0.0377,0.20076 0.0965,0.54493 0.13054,0.76479 0.0341,0.21988 0.0815,0.55622 0.10551,0.74741 0.024,0.1912 0.0593,0.50789 0.0786,0.70396 0.0191,0.19589 0.0464,0.52442 0.0605,0.73003 0.0141,0.20545 0.0349,0.61217 0.0461,0.90385 0.0125,0.32469 0.0164,0.79609 0.01,1.2167 -0.006,0.37752 -0.0189,0.82738 -0.0287,0.99944 -0.01,0.17208 -0.0297,0.46531 -0.044,0.65181 -0.0144,0.18634 -0.0381,0.45627 -0.0527,0.59967 -0.0146,0.1434 -0.0459,0.41716 -0.0699,0.60836 -0.0238,0.1912 -0.0711,0.52755 -0.10516,0.74741 -0.0341,0.21988 -0.0928,0.56403 -0.13054,0.7648 -0.0379,0.20075 -0.0963,0.494 -0.13001,0.65181 -0.0335,0.15765 -0.10377,0.46271 -0.15609,0.67788 -0.0521,0.21501 -0.14236,0.56316 -0.20041,0.77349 -0.0581,0.21032 -0.15904,0.55446 -0.2244,0.76479 -0.0655,0.21032 -0.16721,0.5232 -0.22613,0.69527 -0.0588,0.17208 -0.15783,0.44967 -0.22005,0.61705 -0.0621,0.16721 -0.17573,0.46061 -0.25256,0.65181 -0.0768,0.1912 -0.21014,0.50788 -0.29618,0.70396 -0.086,0.19606 -0.24109,0.53502 -0.34432,0.75351 -0.10342,0.21831 -0.2901,0.59151 -0.41491,0.8291 -0.1248,0.2376 -0.32,0.59566 -0.43401,0.7954 -0.11385,0.19988 -0.29236,0.50338 -0.39665,0.67441 -0.10412,0.17103 -0.28315,0.45558 -0.39769,0.63252 -0.11455,0.17678 -0.30887,0.46618 -0.43176,0.64313 -0.12271,0.17677 -0.34832,0.48962 -0.50128,0.69526 -0.15279,0.20545 -0.39978,0.52614 -0.5489,0.71265 -0.14896,0.18633 -0.38831,0.47575 -0.53152,0.64312 -0.1434,0.16721 -0.33441,0.38621 -0.42429,0.48669 -0.09,0.10029 -0.34328,0.37196 -0.56265,0.60348 -0.21953,0.23135 -0.58419,0.59601 -0.81015,0.81016 -0.22614,0.21414 -0.49313,0.46305 -0.59358,0.5529 -0.10029,0.0899 -0.31946,0.28054 -0.48687,0.42375 -0.16721,0.14323 -0.42151,0.35476 -0.56491,0.47 -0.14322,0.11541 -0.36223,0.28766 -0.48649,0.38292 -0.12428,0.0953 -0.35495,0.26733 -0.51276,0.3824 -0.15765,0.11524 -0.41194,0.29601 -0.56491,0.40187 -0.15296,0.10586 -0.42532,0.28732 -0.60542,0.40344 -0.18007,0.11611 -0.50075,0.31546 -0.71265,0.44305 -0.21188,0.1274 -0.5105,0.30209 -0.66344,0.38811 -0.15296,0.086 -0.45905,0.25152 -0.68013,0.36799 -0.22092,0.11646 -0.58854,0.30035 -0.81694,0.40847 -0.22823,0.10828 -0.57516,0.26732 -0.77124,0.35354 -0.19589,0.086 -0.53223,0.22718 -0.74741,0.31356 -0.21501,0.0862 -0.57481,0.22318 -0.79956,0.30435 -0.22474,0.0812 -0.58053,0.20371 -0.79086,0.27237 -0.21032,0.0685 -0.58576,0.18338 -0.83432,0.25499 -0.24856,0.0718 -0.65128,0.1799 -0.89516,0.24022 -0.24369,0.0605 -0.59185,0.14166 -0.77348,0.18059 -0.18164,0.0388 -0.49851,0.10221 -0.70396,0.14097 -0.20545,0.0388 -0.54962,0.0975 -0.76479,0.13071 -0.21501,0.033 -0.54753,0.0798 -0.73872,0.10377 -0.1912,0.0238 -0.50407,0.0589 -0.69527,0.0779 -0.1912,0.0189 -0.52755,0.0464 -0.74741,0.0612 -0.21988,0.0149 -0.59533,0.0348 -0.83432,0.0442 -0.239,0.01 -0.65738,0.0172 -0.92992,0.0172 -0.27237,0 -0.69092,-0.008 -0.92992,-0.0176 -0.239,-0.01 -0.61046,-0.0292 -0.82563,-0.0434 -0.21501,-0.0143 -0.5842,-0.0454 -0.82025,-0.0694 -0.23587,-0.0238 -0.60349,-0.0666 -0.81694,-0.0949 -0.21328,-0.0285 -0.57829,-0.0833 -0.81122,-0.12184 -0.23292,-0.0386 -0.61617,-0.10864 -0.8517,-0.15574 -0.23552,-0.0471 -0.6148,-0.12967 -0.84283,-0.18373 -0.22804,-0.0541 -0.61167,-0.15191 -0.85257,-0.21744 -0.24091,-0.0657 -0.6254,-0.17799 -0.8543,-0.24978 -0.22892,-0.0718 -0.52961,-0.16912 -0.66832,-0.21657 -0.13853,-0.0473 -0.4215,-0.14879 -0.62871,-0.22562 -0.20719,-0.0768 -0.53952,-0.20597 -0.73872,-0.28697 -0.1992,-0.081 -0.51154,-0.21362 -0.69405,-0.29496 -0.18268,-0.0812 -0.42916,-0.19259 -0.54752,-0.24787 -0.11854,-0.0551 -0.41891,-0.20336 -0.66744,-0.32938 -0.24856,-0.12618 -0.57707,-0.29809 -0.73003,-0.3822 -0.15296,-0.0841 -0.43577,-0.24509 -0.62853,-0.3577 -0.19276,-0.11264 -0.47834,-0.28454 -0.63443,-0.38206 -0.15626,-0.0975 -0.42863,-0.27306 -0.60557,-0.39005 -0.17678,-0.11716 -0.474,-0.32156 -0.66051,-0.45452 -0.18633,-0.1328 -0.45227,-0.32678 -0.59097,-0.43089 -0.13854,-0.10429 -0.36536,-0.27949 -0.50407,-0.38933 -0.13853,-0.11003 -0.39128,-0.31687 -0.56159,-0.45974 -0.17017,-0.14288 -0.42829,-0.3652 -0.5736,-0.49416 -0.14514,-0.12897 -0.45349,-0.41438 -0.68501,-0.63409 -0.23135,-0.2197 -0.5962,-0.58453 -0.81069,-0.8105 -0.21431,-0.22613 -0.49747,-0.53239 -0.62905,-0.68048 -0.13176,-0.14826 -0.32313,-0.36832 -0.42567,-0.48928 -0.10237,-0.1208 -0.30713,-0.37111 -0.45505,-0.55621 -0.14774,-0.18494 -0.37439,-0.47712 -0.50338,-0.64922 -0.12897,-0.17208 -0.33078,-0.44983 -0.44826,-0.61705 -0.11767,-0.16738 -0.30922,-0.44898 -0.42585,-0.62574 -0.11663,-0.17694 -0.28263,-0.43507 -0.36902,-0.57359 -0.0864,-0.13853 -0.25116,-0.41229 -0.36623,-0.60836 -0.11507,-0.19607 -0.29254,-0.50895 -0.3944,-0.69527 -0.10186,-0.18633 -0.30523,-0.58141 -0.45212,-0.87777 -0.14687,-0.29636 -0.35685,-0.74219 -0.46652,-0.99076 -0.1095,-0.24856 -0.27011,-0.62921 -0.35667,-0.84579 -0.0866,-0.21675 -0.21953,-0.56472 -0.29549,-0.77349 -0.0759,-0.20875 -0.19849,-0.56352 -0.27202,-0.78808 -0.0737,-0.22475 -0.1912,-0.60801 -0.26125,-0.8517 -0.07,-0.24387 -0.17816,-0.64659 -0.24004,-0.89516 -0.062,-0.24856 -0.14444,-0.60054 -0.1832,-0.78217 -0.0388,-0.18164 -0.10203,-0.49851 -0.14079,-0.70396 -0.0388,-0.20563 -0.0975,-0.54977 -0.13071,-0.76479 -0.0332,-0.21519 -0.08,-0.54753 -0.10394,-0.73873 -0.024,-0.19119 -0.0589,-0.50406 -0.0777,-0.69526 -0.0189,-0.1912 -0.0464,-0.52755 -0.0612,-0.74741 -0.0148,-0.21988 -0.0346,-0.59151 -0.0442,-0.82563 -0.01,-0.23431 -0.0174,-0.65669 -0.0174,-0.93861 0,-0.28211 0.008,-0.70449 0.0174,-0.93861 0.01,-0.23431 0.0294,-0.60577 0.0442,-0.82563 0.0148,-0.21988 0.0422,-0.55622 0.0612,-0.74742 0.0188,-0.19119 0.0537,-0.50406 0.0777,-0.69526 0.024,-0.1912 0.0707,-0.5237 0.10394,-0.73872 0.0332,-0.21519 0.0919,-0.55934 0.13071,-0.7648 0.0388,-0.20545 0.10203,-0.52232 0.14079,-0.70395 0.0388,-0.18164 0.12115,-0.53362 0.1832,-0.78218 0.0619,-0.24856 0.17,-0.65163 0.24022,-0.89569 0.07,-0.24386 0.19154,-0.63896 0.27011,-0.87777 0.0784,-0.23865 0.20719,-0.61011 0.28592,-0.8251 0.0789,-0.21519 0.2178,-0.57481 0.3087,-0.79956 0.0911,-0.22474 0.22597,-0.54543 0.30019,-0.71265 0.074,-0.16738 0.2044,-0.45279 0.28975,-0.63443 0.0855,-0.18163 0.24577,-0.50632 0.35651,-0.72134 0.11072,-0.21518 0.2835,-0.5397 0.38396,-0.72134 0.10064,-0.18163 0.29757,-0.52198 0.43785,-0.7561 0.14027,-0.2343 0.36414,-0.5941 0.49748,-0.79955 0.13349,-0.20546 0.35495,-0.53415 0.4924,-0.73004 0.13749,-0.19606 0.35545,-0.49712 0.4846,-0.66919 0.12897,-0.17208 0.35563,-0.46427 0.50353,-0.64922 0.14792,-0.18511 0.3558,-0.43942 0.46218,-0.5649 0.10638,-0.12567 0.29792,-0.34588 0.42585,-0.48928 0.12793,-0.1434 0.40169,-0.43958 0.60855,-0.65807 0.20666,-0.21849 0.53849,-0.55274 0.73734,-0.74306 0.19885,-0.19016 0.47644,-0.44949 0.61705,-0.57657 0.14045,-0.12689 0.3885,-0.34451 0.551,-0.48356 0.16251,-0.13923 0.43991,-0.36917 0.6167,-0.51138 0.1766,-0.14201 0.5011,-0.39247 0.72134,-0.55656 0.22005,-0.16408 0.54493,-0.39875 0.72168,-0.52164 0.17695,-0.12272 0.46634,-0.31703 0.64313,-0.43157 0.17694,-0.11455 0.45852,-0.29167 0.62574,-0.39353 0.16738,-0.10186 0.41419,-0.24838 0.54874,-0.32572 0.13453,-0.0773 0.35998,-0.20388 0.50094,-0.28123 0.14097,-0.0775 0.42204,-0.22631 0.62452,-0.3306 0.2025,-0.10446 0.51295,-0.25777 0.6897,-0.34069 0.17695,-0.0829 0.46237,-0.2131 0.63443,-0.28906 0.17208,-0.0761 0.47644,-0.2051 0.67614,-0.28645 0.19989,-0.0814 0.52057,-0.20667 0.71265,-0.27828 0.19224,-0.0718 0.47452,-0.17312 0.62749,-0.22544 0.15296,-0.0521 0.46199,-0.15227 0.68657,-0.22266 0.22475,-0.0702 0.56491,-0.17104 0.75611,-0.22388 0.1912,-0.0528 0.47277,-0.12741 0.62574,-0.16565 0.15296,-0.0384 0.41506,-0.10081 0.58228,-0.13887 0.16739,-0.0381 0.46515,-0.10082 0.66188,-0.13975 0.19676,-0.0388 0.54493,-0.10168 0.77349,-0.13975 0.22874,-0.0381 0.56056,-0.0888 0.73734,-0.11281 0.17695,-0.024 0.42723,-0.0554 0.55622,-0.0699 0.12914,-0.0146 0.4029,-0.0417 0.60835,-0.0605 0.20563,-0.0188 0.51451,-0.0429 0.68658,-0.0537 0.17208,-0.0108 0.45764,-0.0256 0.63443,-0.033 0.17695,-0.007 0.58751,-0.0146 0.91254,-0.016 z m 0.0782,8.0806 c -0.005,0 -1.119,1.9337 -2.476,4.297 -1.3571,2.3637 -3.6361,6.3174 -5.0641,8.7862 l -2.5968,4.4886 2.5968,4.4889 c 1.4283,2.4689 3.707,6.4225 5.0641,8.7862 1.357,2.3634 2.4713,4.297 2.476,4.297 0.005,0 1.119,-1.9337 2.476,-4.297 1.357,-2.3636 3.6358,-6.3171 5.0641,-8.7862 l 2.5979,-4.4892 -2.5979,-4.4889 c -1.4287,-2.4688 -3.7077,-6.4225 -5.0644,-8.7859 -1.3568,-2.3634 -2.4697,-4.2973 -2.476,-4.2973 z"
         id="icon" /></g></g></svg>
